<?xml version="1.0" encoding="utf-8"?>
<!-- Generator: Adobe Illustrator 21.0.0, SVG Export Plug-In . SVG Version: 6.00 Build 0)  -->
<svg version="1.1" id="Camada_1" xmlns="http://www.w3.org/2000/svg" xmlns:xlink="http://www.w3.org/1999/xlink" x="0px" y="0px"
	 viewBox="0 0 500 173" style="enable-background:new 0 0 500 173;" xml:space="preserve">
<style type="text/css">
	.st0{fill:#FFFFFF;}
</style>
<g>
	<path class="st0" d="M372,75.6c-23.6,0-41.9,20.9-42.7,46.7c-1.3,44.5,58.1,59.9,77.6,35.4v-18.9c0,0-6.2,10.7-30.2,10.7
		c-24,0-24.8-17.8-24.8-17.8h61.9c0.6-3,0.9-6.2,0.9-9.4C414.6,96.5,395.5,75.6,372,75.6z M351.6,115.8c2.5-9.9,11-17.3,21-17.3
		c10,0,18.5,7.3,21,17.3H351.6z M64.8,88.8C58.3,81.4,49.7,77,40.2,77C19.9,77,3.5,97.5,3.5,122.8c0,25.3,16.5,45.9,36.8,45.9
		c9.5,0,18.1-4.5,24.6-11.8v11.3h23.6V77.5H64.8V88.8z M47.2,148.4c-10.4,0-18.8-11.3-18.8-25.1c0-13.9,8.4-25.1,18.8-25.1
		s18.8,11.3,18.8,25.1C66.1,137.1,57.6,148.4,47.2,148.4z M222.5,157.7v-46.5l0,0V98.1c0,0-1.5-21.3-23.7-21.3
		c-22.2,0-27,12.4-27,12.4s-6.4-13.5-23.3-13.5c-13.9,0-21.3,8-23.5,10.9V77h-23.1v90.9h23.1v-59.3c1.5-3.7,5.4-10.9,13.7-10.9
		c9.1,0,11.8,7.5,12.4,11.9v47.9c0.9,4.5,3.5,7.7,6.8,10.4h23.1c-3.7-3-6-6.4-6.8-10.2v-44.7l0,0c0,0-0.7-14.4,13.1-15.1
		c10-0.5,11.8,8.6,12.1,13.6v2.7c0,0.3,0,0.5,0,0.5l0,0v42.8c0.9,4.5,3.5,7.7,6.8,10.4h23.1C225.6,164.8,223.2,161.5,222.5,157.7z
		 M286.5,77c-9.5,0-18.1,4.5-24.6,11.8V49.5h-23.6v118.7h23.6v-11.3c6.5,7.3,15.1,11.8,24.6,11.8c20.3,0,36.7-20.5,36.7-45.9
		C323.3,97.5,306.8,77,286.5,77z M279.5,148.4c-10.4,0-18.8-11.3-18.8-25.1c0-13.9,8.4-25.1,18.8-25.1c10.4,0,18.8,11.3,18.8,25.1
		C298.3,137.1,289.9,148.4,279.5,148.4z M469.8,77.1l-17.1,64l-17.1-64h-27.4l30.3,90.9h26l32-90.9H469.8z"/>
	<g>
		<path class="st0" d="M156.1,33.5c-1.8-1.2-4.4-1.8-7-0.3c-3.4,2-4,5.2-2.3,8.1l2,3.4c1.7,2.9,4.8,3.9,8.3,1.9
			c2.5-1.4,3.4-3.8,3.1-6.2l3.2-0.3c0.4,3.1-0.9,6.9-5,9.3c-5.4,3.1-10.4,1.2-12.8-3l-1.8-3.2c-2.5-4.3-1.4-9.7,3.9-12.7
			c3.9-2.2,8.1-1.5,10.4,0.4L156.1,33.5z"/>
		<path class="st0" d="M172,41.6l-7.9-18.9l13.8-5.8l1.2,2.8l-10.5,4.4l2.1,4.9l7.9-3.3l1.1,2.7l-7.9,3.3l2.3,5.6l10.5-4.4l1.2,2.8
			L172,41.6z"/>
		<path class="st0" d="M207.6,29.4c-1.8,0.5-2.8-0.4-3.4-2.4l-0.8-2.6c-0.5-1.7-1.6-2.4-4.3-1.7l-5.2,1.5l2.3,8.2l-3.4,1l-5.5-19.7
			l8.8-2.4c5-1.4,7.6,0.2,8.5,3.2l0.2,0.7c0.6,2.2,0.1,4.1-2.8,5.5c3.1-0.6,4.5,0.9,5.1,2.9l0.7,2.3c0.3,1,0.7,1.5,1.7,1.8l0.3,1.2
			L207.6,29.4z M201,15.6c-0.4-1.3-1.5-2.3-4-1.6l-5.6,1.6l1.7,6.1l5.6-1.6c2.2-0.6,3-2,2.5-3.6L201,15.6z"/>
		<path class="st0" d="M225.7,26l-3.1,0.4L211.2,7.4l3.8-0.5l8.7,15.1l4-16.9l3.8-0.5L225.7,26z"/>
		<path class="st0" d="M240.5,24.5L240.1,4l14.9-0.3l0.1,3.1L243.7,7l0.1,5.3l8.6-0.2l0.1,2.9l-8.6,0.2l0.1,6.1l11.4-0.2l0.1,3.1
			L240.5,24.5z"/>
		<path class="st0" d="M267.8,25.7c-3.9-0.4-6.2-2.5-7.1-5.5l3.1-1.4c0.8,2,2,3.6,4.3,3.8c2.6,0.2,3.8-1.1,4-3.5l1.3-14.1l3.6,0.3
			l-1.3,14.2C275.3,23.3,272.6,26.1,267.8,25.7z"/>
		<path class="st0" d="M295.6,29.3l-0.9-5.5l-8.5-1.7l-2.9,4.7l-3.6-0.7l12.2-18.4l3.3,0.7l4.2,21.8L295.6,29.3z M292.5,12.1
			l-4.8,7.5l6.4,1.3L292.5,12.1z"/>
		<path class="st0" d="M319.7,36.9c-1.8-0.6-2.1-1.9-1.5-3.9l0.8-2.6c0.5-1.7,0.1-2.9-2.6-3.8l-5.1-1.8l-2.8,8.1l-3.4-1.2l6.6-19.4
			l8.6,2.9c4.9,1.7,6.2,4.5,5.2,7.4l-0.2,0.6c-0.7,2.1-2.2,3.4-5.4,3c2.9,1.3,3.2,3.3,2.5,5.3l-0.7,2.3c-0.3,1-0.3,1.6,0.4,2.4
			l-0.4,1.2L319.7,36.9z M322.1,21.8c0.4-1.3,0-2.7-2.4-3.5l-5.5-1.9l-2,6l5.5,1.9c2.1,0.7,3.6,0,4.1-1.6L322.1,21.8z"/>
		<path class="st0" d="M328.1,40.4l8.5-18.7l3.2,1.5l-8.5,18.7L328.1,40.4z"/>
		<path class="st0" d="M351.4,52.5l0.8-5.5l-7.6-4.3l-4.3,3.5l-3.2-1.8l17.4-13.6l2.9,1.7l-2.9,22L351.4,52.5z M353.9,35.2l-7,5.6
			l5.7,3.3L353.9,35.2z"/>
	</g>
</g>
</svg>
